<?xml version="1.0" standalone="no"?><!DOCTYPE svg PUBLIC "-//W3C//DTD SVG 1.1//EN" "http://www.w3.org/Graphics/SVG/1.1/DTD/svg11.dtd"><svg class="icon" height="512" viewBox="0 0 1170 1024" version="1.1" xmlns="http://www.w3.org/2000/svg"><path d="M1097.142857 438.857143c40.557714 0 73.142857 32.585143 73.142857 73.142857s-32.585143 73.142857-73.142857 73.142857h-8.557714l-65.718857 378.294857c-6.290286 34.852571-36.571429 60.562286-72.009143 60.562286H219.428571a73.472 73.472 0 0 1-72.009142-60.562286L81.700571 585.142857H73.142857c-40.557714 0-73.142857-32.585143-73.142857-73.142857s32.585143-73.142857 73.142857-73.142857h1024zM277.138286 896a36.937143 36.937143 0 0 0 33.718857-39.424l-18.285714-237.714286c-1.718857-20.004571-19.419429-35.437714-39.424-33.718857s-35.437714 19.419429-33.718858 39.424l18.285715 237.714286c1.718857 18.870857 17.700571 33.718857 36.571428 33.718857h2.852572z m234.861714-36.571429V621.714286c0-20.004571-16.566857-36.571429-36.571429-36.571429s-36.571429 16.566857-36.571428 36.571429v237.714285c0 20.004571 16.566857 36.571429 36.571428 36.571429s36.571429-16.566857 36.571429-36.571429z m219.428571 0V621.714286c0-20.004571-16.566857-36.571429-36.571428-36.571429s-36.571429 16.566857-36.571429 36.571429v237.714285c0 20.004571 16.566857 36.571429 36.571429 36.571429s36.571429-16.566857 36.571428-36.571429z m201.142858 2.852572l18.285714-237.714286c1.718857-20.004571-13.714286-37.705143-33.718857-39.424s-37.705143 13.714286-39.424 33.718857l-18.285715 237.714286a36.937143 36.937143 0 0 0 33.718858 39.424h2.852571c18.870857 0 34.852571-14.848 36.571429-33.718857zM272.018286 166.838857L218.88 402.285714H143.433143L201.142857 150.272A145.042286 145.042286 0 0 1 343.442286 36.571429H438.857143c0-20.004571 16.566857-36.571429 36.571428-36.571429h219.428572c20.004571 0 36.571429 16.566857 36.571428 36.571429h95.414858A145.042286 145.042286 0 0 1 969.142857 150.272L1026.852571 402.285714h-75.446857l-53.138285-235.446857a73.289143 73.289143 0 0 0-71.424-57.161143H731.428571c0 20.004571-16.566857 36.571429-36.571428 36.571429h-219.428572c-20.004571 0-36.571429-16.566857-36.571428-36.571429H343.442286c-34.304 0-63.414857 23.442286-71.424 57.161143z" fill="" /></svg>